name processed_emg_signals
nRows=33
nColumns=7
 
endheader
time	RGLTMED	RRF	RADDLONG	RST	RTA	RGM
0.485	0.3034854761699536	0.0211022157288843	0.0187050713299751	0.3326805032693296	0.0715605906813384	0.0489740167636029
0.486	0.3004319620110685	0.020990153773383	0.0185913047250827	0.3311143786258583	0.0695153128802869	0.0496444103083771
0.487	0.2974320895214558	0.0208809335423478	0.018478723441393	0.3295299547062549	0.0675330728743635	0.050322975729494
0.488	0.2944866466873443	0.0207744399515295	0.0183673884880806	0.327928733192351	0.0656136641547165	0.0510097771525397
0.489	0.2915963325921288	0.020670562862553	0.0182573610209519	0.3263122199501294	0.0637568378653314	0.0517048868883386
0.49	0.2887617575704503	0.0205691971658424	0.0181487022887174	0.3246819219324783	0.0619623036077289	0.0524083856819922
0.491	0.2859834434988378	0.0204702428509042	0.0180414735776469	0.323039344075656	0.0602297303050371	0.0531203629608254
0.492	0.2832618242222064	0.0203736050637884	0.0179357361545795	0.3213859861941726	0.0585587471235121	0.0538409170807201
0.493	0.2805972461155359	0.0202791941515742	0.017831551208214	0.3197233398789838	0.0569489444494708	0.0545701555701632
0.494	0.2779899687798107	0.0201869256938075	0.0177289797886091	0.3180528854039416	0.055399874919536	0.0553081953711795
0.495	0.2754401658707849	0.0200967205208761	0.0176280827448798	0.3163760886451696	0.0539110545020478	0.0560551630761955
0.496	0.2729479260585971	0.0200085047193798	0.0175289206610821	0.3146943980176161	0.052481963627467	0.0568111951597122
0.497	0.2705132541156994	0.0199222096246117	0.0174315537903872	0.3130092414328807	0.0511120483655104	0.0575764382035436
0.498	0.2681360721298627	0.0198377718002923	0.0173360419876922	0.3113220232828248	0.0498007216467529	0.0583510491142239
0.499	0.2658162208382959	0.019755133005741	0.0172424446408357	0.3096341214543094	0.048547364526338	0.0591351953310361
0.5	0.2635534610782025	0.0196742401507571	0.0171508206006047	0.3079468843816895	0.0473513274873318	0.0599290550229975
0.501	0.261347475348487	0.0195950452385964	0.0170612281096491	0.3062616281448508	0.046211931781156	0.0607328172730072
0.502	0.2591978694768742	0.0195175052974729	0.0169737247304167	0.3045796336218984	0.0451284708023983	0.0615466822472526
0.503	0.2571041743863863	0.0194415823011484	0.0168883672721603	0.3029021437067872	0.044100211495214	0.0623708613478343
0.504	0.255065847955065	0.0193672430791448	0.0168052117170462	0.3012303606032327	0.0431263957884358	0.0632055773465631
0.505	0.2530822769629555	0.0192944592171548	0.0167243131453654	0.2995654432069733	0.0422062420564741	0.0640510644978793
0.506	0.2511527791207489	0.019223206948169	0.0166457256598527	0.2979085045885893	0.0413389466029865	0.0649075686290036
0.507	0.2492766051749674	0.0191534670348621	0.0165695023090753	0.296260609588817	0.040523685164292	0.0657753472055514
0.508	0.2474529410849065	0.0190852246436913	0.0164956950099094	0.2946227725376462	0.0397596144293785	0.0666546693710428
0.509	0.2456809102669259	0.0190184692111761	0.0164243544690798	0.2929959551077278	0.0390458735733976	0.0675458159588946
0.51	0.2439595759017303	0.0189531943027793	0.0163555301037696	0.2913810643116556	0.0383815858014552	0.0684490794755894
0.511	0.2422879433002711	0.0188893974647825	0.0162892699613264	0.2897789506517967	0.0377658598995766	0.0693647640538633
0.512	0.2406649623236111	0.0188270800695389	0.0162256206381602	0.2881904064302933	0.0371977917896911	0.0702931853748541
0.513	0.2390895298518649	0.0187662471544472	0.016164627197987	0.2866161642259426	0.0366764660854949	0.0712346705583576
0.514	0.2375604922972051	0.0187069072550252	0.0161063330896377	0.2850568955436571	0.0362009576460018	0.0721895580204802
0.515	0.2360766481559401	0.0186490722324827	0.0160507800646721	0.2835132096411983	0.0357703331235402	0.0731581972982593
0.516	0.2346367505947481	0.0185927570962206	0.0159980080950588	0.2819856525368949	0.0353836525029743	0.0741409488410304
0.517	0.2332395100661967	0.0185379798217431	0.0159480552911436	0.2804747062010257	0.0350399706290219	0.0751381837686114
